<mxfile host="app.diagrams.net" modified="2023-02-09T03:47:20.257Z" agent="5.0 (Windows NT 10.0; Win64; x64) AppleWebKit/537.36 (KHTML, like Gecko) Chrome/109.0.0.0 Safari/537.36" etag="Uzn16ngiZnej9-pnyWkY" version="20.8.16" type="github">
  <diagram name="Page-1" id="edf60f1a-56cd-e834-aa8a-f176f3a09ee4">
    <mxGraphModel dx="1434" dy="764" grid="1" gridSize="10" guides="1" tooltips="1" connect="1" arrows="1" fold="1" page="1" pageScale="1" pageWidth="1100" pageHeight="850" background="none" math="0" shadow="0">
      <root>
        <mxCell id="0" />
        <mxCell id="1" parent="0" />
        <mxCell id="NivLviA1VhS6VnUR7uDm-3" value="" style="edgeStyle=orthogonalEdgeStyle;rounded=0;orthogonalLoop=1;jettySize=auto;html=1;" edge="1" parent="1" source="NivLviA1VhS6VnUR7uDm-1" target="NivLviA1VhS6VnUR7uDm-2">
          <mxGeometry relative="1" as="geometry" />
        </mxCell>
        <mxCell id="NivLviA1VhS6VnUR7uDm-23" style="edgeStyle=orthogonalEdgeStyle;rounded=0;orthogonalLoop=1;jettySize=auto;html=1;entryX=0.5;entryY=0;entryDx=0;entryDy=0;" edge="1" parent="1" source="NivLviA1VhS6VnUR7uDm-1" target="NivLviA1VhS6VnUR7uDm-9">
          <mxGeometry relative="1" as="geometry" />
        </mxCell>
        <mxCell id="NivLviA1VhS6VnUR7uDm-1" value="HBK3服务" style="rounded=0;whiteSpace=wrap;html=1;" vertex="1" parent="1">
          <mxGeometry x="180" y="40" width="120" height="60" as="geometry" />
        </mxCell>
        <mxCell id="NivLviA1VhS6VnUR7uDm-32" value="" style="edgeStyle=orthogonalEdgeStyle;rounded=0;orthogonalLoop=1;jettySize=auto;html=1;" edge="1" parent="1" source="NivLviA1VhS6VnUR7uDm-2" target="NivLviA1VhS6VnUR7uDm-30">
          <mxGeometry relative="1" as="geometry" />
        </mxCell>
        <mxCell id="NivLviA1VhS6VnUR7uDm-2" value="阿里云打包服务器（现存的linux）" style="rounded=0;whiteSpace=wrap;html=1;" vertex="1" parent="1">
          <mxGeometry x="180" y="180" width="120" height="60" as="geometry" />
        </mxCell>
        <mxCell id="NivLviA1VhS6VnUR7uDm-7" value="" style="edgeStyle=orthogonalEdgeStyle;rounded=0;orthogonalLoop=1;jettySize=auto;html=1;" edge="1" parent="1" source="NivLviA1VhS6VnUR7uDm-6" target="NivLviA1VhS6VnUR7uDm-1">
          <mxGeometry relative="1" as="geometry" />
        </mxCell>
        <mxCell id="NivLviA1VhS6VnUR7uDm-6" value="Actor" style="shape=umlActor;verticalLabelPosition=bottom;verticalAlign=top;html=1;outlineConnect=0;" vertex="1" parent="1">
          <mxGeometry x="40" y="40" width="30" height="60" as="geometry" />
        </mxCell>
        <mxCell id="NivLviA1VhS6VnUR7uDm-16" value="" style="edgeStyle=orthogonalEdgeStyle;rounded=0;orthogonalLoop=1;jettySize=auto;html=1;" edge="1" parent="1" source="NivLviA1VhS6VnUR7uDm-8" target="NivLviA1VhS6VnUR7uDm-9">
          <mxGeometry relative="1" as="geometry" />
        </mxCell>
        <mxCell id="NivLviA1VhS6VnUR7uDm-8" value="&lt;ul&gt;&lt;li&gt;打包基础环境（nodejs,java）&lt;/li&gt;&lt;li&gt;基础中间件（nginx,mysql,redis）&lt;/li&gt;&lt;li&gt;集成工具（inno）&lt;/li&gt;&lt;/ul&gt;" style="text;strokeColor=none;fillColor=none;html=1;whiteSpace=wrap;verticalAlign=middle;overflow=hidden;" vertex="1" parent="1">
          <mxGeometry x="570" y="290" width="180" height="100" as="geometry" />
        </mxCell>
        <mxCell id="NivLviA1VhS6VnUR7uDm-18" value="" style="edgeStyle=orthogonalEdgeStyle;rounded=0;orthogonalLoop=1;jettySize=auto;html=1;" edge="1" parent="1" source="NivLviA1VhS6VnUR7uDm-9">
          <mxGeometry relative="1" as="geometry">
            <mxPoint x="870" y="210" as="targetPoint" />
          </mxGeometry>
        </mxCell>
        <mxCell id="NivLviA1VhS6VnUR7uDm-35" value="" style="edgeStyle=orthogonalEdgeStyle;rounded=0;orthogonalLoop=1;jettySize=auto;html=1;" edge="1" parent="1" source="NivLviA1VhS6VnUR7uDm-9" target="NivLviA1VhS6VnUR7uDm-30">
          <mxGeometry relative="1" as="geometry" />
        </mxCell>
        <mxCell id="NivLviA1VhS6VnUR7uDm-9" value="阿里云打包服务器（新开windows）" style="rounded=0;whiteSpace=wrap;html=1;" vertex="1" parent="1">
          <mxGeometry x="600" y="180" width="120" height="60" as="geometry" />
        </mxCell>
        <mxCell id="NivLviA1VhS6VnUR7uDm-12" value="拷贝代码" style="text;html=1;strokeColor=none;fillColor=none;align=center;verticalAlign=middle;whiteSpace=wrap;rounded=0;" vertex="1" parent="1">
          <mxGeometry x="310" y="180" width="60" height="30" as="geometry" />
        </mxCell>
        <mxCell id="NivLviA1VhS6VnUR7uDm-15" value="" style="edgeStyle=orthogonalEdgeStyle;rounded=0;orthogonalLoop=1;jettySize=auto;html=1;" edge="1" parent="1" source="NivLviA1VhS6VnUR7uDm-13" target="NivLviA1VhS6VnUR7uDm-2">
          <mxGeometry relative="1" as="geometry" />
        </mxCell>
        <mxCell id="NivLviA1VhS6VnUR7uDm-13" value="&lt;ul&gt;&lt;li&gt;编译java代码&lt;/li&gt;&lt;li&gt;编译node代码&lt;/li&gt;&lt;li&gt;加密处理&lt;/li&gt;&lt;li&gt;准备数据字典&lt;/li&gt;&lt;/ul&gt;" style="text;strokeColor=none;fillColor=none;html=1;whiteSpace=wrap;verticalAlign=middle;overflow=hidden;" vertex="1" parent="1">
          <mxGeometry y="165" width="130" height="90" as="geometry" />
        </mxCell>
        <mxCell id="NivLviA1VhS6VnUR7uDm-19" value="生成exe文件" style="text;html=1;strokeColor=none;fillColor=none;align=center;verticalAlign=middle;whiteSpace=wrap;rounded=0;" vertex="1" parent="1">
          <mxGeometry x="760" y="170" width="60" height="30" as="geometry" />
        </mxCell>
        <mxCell id="NivLviA1VhS6VnUR7uDm-21" value="" style="edgeStyle=orthogonalEdgeStyle;rounded=0;orthogonalLoop=1;jettySize=auto;html=1;" edge="1" parent="1" source="NivLviA1VhS6VnUR7uDm-20">
          <mxGeometry relative="1" as="geometry">
            <mxPoint x="930" y="180" as="targetPoint" />
          </mxGeometry>
        </mxCell>
        <mxCell id="NivLviA1VhS6VnUR7uDm-20" value="&lt;ul&gt;&lt;li&gt;生成下载地址返回给hbk&lt;/li&gt;&lt;/ul&gt;" style="text;strokeColor=none;fillColor=none;html=1;whiteSpace=wrap;verticalAlign=middle;overflow=hidden;" vertex="1" parent="1">
          <mxGeometry x="832.5" y="70" width="195" height="40" as="geometry" />
        </mxCell>
        <mxCell id="NivLviA1VhS6VnUR7uDm-24" value="调用windows开机，并传入机构参数" style="text;html=1;strokeColor=none;fillColor=none;align=center;verticalAlign=middle;whiteSpace=wrap;rounded=0;" vertex="1" parent="1">
          <mxGeometry x="540" y="40" width="120" height="30" as="geometry" />
        </mxCell>
        <mxCell id="NivLviA1VhS6VnUR7uDm-25" value="调用linux开机，传入编译参数" style="text;html=1;strokeColor=none;fillColor=none;align=center;verticalAlign=middle;whiteSpace=wrap;rounded=0;" vertex="1" parent="1">
          <mxGeometry x="240" y="120" width="90" height="30" as="geometry" />
        </mxCell>
        <mxCell id="NivLviA1VhS6VnUR7uDm-26" value="新增bat脚本，获取oss上最新配置文件至windows相应目录" style="rounded=0;whiteSpace=wrap;html=1;" vertex="1" parent="1">
          <mxGeometry x="400" y="380" width="120" height="60" as="geometry" />
        </mxCell>
        <mxCell id="NivLviA1VhS6VnUR7uDm-28" value="新增脚本：virbox激活，环境是否符合安装要求（cpu,内存，磁盘，端口），初始化机器（定时清理日志）" style="rounded=0;whiteSpace=wrap;html=1;" vertex="1" parent="1">
          <mxGeometry x="780" y="370" width="130" height="100" as="geometry" />
        </mxCell>
        <mxCell id="NivLviA1VhS6VnUR7uDm-30" value="阿里云oss" style="ellipse;shape=cloud;whiteSpace=wrap;html=1;" vertex="1" parent="1">
          <mxGeometry x="380" y="170" width="120" height="80" as="geometry" />
        </mxCell>
        <mxCell id="NivLviA1VhS6VnUR7uDm-31" value="阿里云oss" style="ellipse;shape=cloud;whiteSpace=wrap;html=1;" vertex="1" parent="1">
          <mxGeometry x="870" y="175" width="120" height="80" as="geometry" />
        </mxCell>
        <mxCell id="NivLviA1VhS6VnUR7uDm-33" value="" style="endArrow=classic;html=1;rounded=0;exitX=0.4;exitY=0.1;exitDx=0;exitDy=0;exitPerimeter=0;entryX=1;entryY=1;entryDx=0;entryDy=0;" edge="1" parent="1" source="NivLviA1VhS6VnUR7uDm-30" target="NivLviA1VhS6VnUR7uDm-1">
          <mxGeometry width="50" height="50" relative="1" as="geometry">
            <mxPoint x="390" y="160" as="sourcePoint" />
            <mxPoint x="440" y="110" as="targetPoint" />
          </mxGeometry>
        </mxCell>
        <mxCell id="NivLviA1VhS6VnUR7uDm-34" value="拷贝完成通知hbk" style="text;html=1;strokeColor=none;fillColor=none;align=center;verticalAlign=middle;whiteSpace=wrap;rounded=0;" vertex="1" parent="1">
          <mxGeometry x="370" y="100" width="60" height="30" as="geometry" />
        </mxCell>
        <mxCell id="NivLviA1VhS6VnUR7uDm-37" value="" style="endArrow=classic;html=1;rounded=0;exitX=0;exitY=1;exitDx=0;exitDy=0;entryX=0.558;entryY=0.017;entryDx=0;entryDy=0;entryPerimeter=0;" edge="1" parent="1" source="NivLviA1VhS6VnUR7uDm-9" target="NivLviA1VhS6VnUR7uDm-26">
          <mxGeometry width="50" height="50" relative="1" as="geometry">
            <mxPoint x="460" y="340" as="sourcePoint" />
            <mxPoint x="510" y="290" as="targetPoint" />
          </mxGeometry>
        </mxCell>
        <mxCell id="NivLviA1VhS6VnUR7uDm-38" value="" style="endArrow=classic;html=1;rounded=0;exitX=1;exitY=1;exitDx=0;exitDy=0;entryX=0.5;entryY=0;entryDx=0;entryDy=0;" edge="1" parent="1" source="NivLviA1VhS6VnUR7uDm-9" target="NivLviA1VhS6VnUR7uDm-28">
          <mxGeometry width="50" height="50" relative="1" as="geometry">
            <mxPoint x="780" y="330" as="sourcePoint" />
            <mxPoint x="830" y="280" as="targetPoint" />
          </mxGeometry>
        </mxCell>
        <mxCell id="NivLviA1VhS6VnUR7uDm-39" value="主动获取代码" style="text;html=1;strokeColor=none;fillColor=none;align=center;verticalAlign=middle;whiteSpace=wrap;rounded=0;" vertex="1" parent="1">
          <mxGeometry x="510" y="175" width="80" height="30" as="geometry" />
        </mxCell>
        <mxCell id="NivLviA1VhS6VnUR7uDm-40" value="主动获取最新配置文件" style="text;html=1;strokeColor=none;fillColor=none;align=center;verticalAlign=middle;whiteSpace=wrap;rounded=0;" vertex="1" parent="1">
          <mxGeometry x="480" y="280" width="80" height="30" as="geometry" />
        </mxCell>
        <mxCell id="NivLviA1VhS6VnUR7uDm-41" value="主动获取最新脚本文件" style="text;html=1;strokeColor=none;fillColor=none;align=center;verticalAlign=middle;whiteSpace=wrap;rounded=0;" vertex="1" parent="1">
          <mxGeometry x="770" y="270" width="80" height="30" as="geometry" />
        </mxCell>
      </root>
    </mxGraphModel>
  </diagram>
</mxfile>
